# xmcd CD database file
#
# Track frame offsets:
#	150
#	21001
#	37291
#	47635
#	79652
#	100615
#
# Disc length: 1637 seconds
#
# Revision: 0
# Processed by: cddbd v1.5.1PL0 Copyright (c) Steve Scherf et al.
# Submitted via: CDex 1.51
#
DISCID=40066306
DTITLE=Diana Kall - Have Yourself A Merry Little Christmas
DYEAR=2001
DGENRE=Jazz
TTITLE0=Have Yourself a Merry Little Christmas
TTITLE1=Christmas Time Is Here
TTITLE2=Jingle Bells
TTITLE3=And I Love Him
TTITLE4=Dreamsville
TTITLE5=Soldier in the Rain
EXTD=YEAR: 2001
EXTT0=
EXTT1=
EXTT2=
EXTT3=
EXTT4=
EXTT5=
PLAYORDER=
